<svg xmlns="http://www.w3.org/2000/svg" viewBox="0 0 100 100" preserveAspectRatio="xMidYMid" width="73" height="73" style="shape-rendering: auto; display: block; background: transparent;" xmlns:xlink="http://www.w3.org/1999/xlink"><g><g transform="rotate(0 50 50)">
  <rect fill="#00b8ff" height="10" width="15" ry="4.8" rx="4.8" y="23" x="42.5">
    <animate repeatCount="indefinite" begin="-1.2867647058823528s" dur="1.4705882352941175s" keyTimes="0;1" values="1;0" attributeName="opacity"></animate>
  </rect>
</g><g transform="rotate(45 50 50)">
  <rect fill="#a6e51c" height="10" width="15" ry="4.8" rx="4.8" y="23" x="42.5">
    <animate repeatCount="indefinite" begin="-1.102941176470588s" dur="1.4705882352941175s" keyTimes="0;1" values="1;0" attributeName="opacity"></animate>
  </rect>
</g><g transform="rotate(90 50 50)">
  <rect fill="#fd6f00" height="10" width="15" ry="4.8" rx="4.8" y="23" x="42.5">
    <animate repeatCount="indefinite" begin="-0.9191176470588235s" dur="1.4705882352941175s" keyTimes="0;1" values="1;0" attributeName="opacity"></animate>
  </rect>
</g><g transform="rotate(135 50 50)">
  <rect fill="#f232bd" height="10" width="15" ry="4.8" rx="4.8" y="23" x="42.5">
    <animate repeatCount="indefinite" begin="-0.7352941176470588s" dur="1.4705882352941175s" keyTimes="0;1" values="1;0" attributeName="opacity"></animate>
  </rect>
</g><g transform="rotate(180 50 50)">
  <rect fill="#00b8ff" height="10" width="15" ry="4.8" rx="4.8" y="23" x="42.5">
    <animate repeatCount="indefinite" begin="-0.551470588235294s" dur="1.4705882352941175s" keyTimes="0;1" values="1;0" attributeName="opacity"></animate>
  </rect>
</g><g transform="rotate(225 50 50)">
  <rect fill="#a6e51c" height="10" width="15" ry="4.8" rx="4.8" y="23" x="42.5">
    <animate repeatCount="indefinite" begin="-0.3676470588235294s" dur="1.4705882352941175s" keyTimes="0;1" values="1;0" attributeName="opacity"></animate>
  </rect>
</g><g transform="rotate(270 50 50)">
  <rect fill="#fd6f00" height="10" width="15" ry="4.8" rx="4.8" y="23" x="42.5">
    <animate repeatCount="indefinite" begin="-0.1838235294117647s" dur="1.4705882352941175s" keyTimes="0;1" values="1;0" attributeName="opacity"></animate>
  </rect>
</g><g transform="rotate(315 50 50)">
  <rect fill="#f232bd" height="10" width="15" ry="4.8" rx="4.8" y="23" x="42.5">
    <animate repeatCount="indefinite" begin="0s" dur="1.4705882352941175s" keyTimes="0;1" values="1;0" attributeName="opacity"></animate>
  </rect>
</g><g></g></g><!-- [ldio] generated by https://loading.io --></svg>