<svg width="23" height="23" viewBox="0 0 23 23" fill="none" xmlns="http://www.w3.org/2000/svg">
<path d="M4.50014 13.5H17.6359C18.6487 13.5 19.1551 13.5 19.5582 13.3112C19.9134 13.1448 20.2118 12.8777 20.4163 12.5432C20.6485 12.1633 20.7044 11.66 20.8163 10.6534L21.4013 5.38835C21.4355 5.08088 21.4525 4.92715 21.4031 4.80816C21.3597 4.70366 21.2821 4.61697 21.183 4.56228C21.0702 4.5 20.9155 4.5 20.6062 4.5H4.00014M1.5 1.5H2.74844C3.01306 1.5 3.14537 1.5 3.24889 1.55032C3.34002 1.59463 3.41554 1.66557 3.46544 1.75376C3.52212 1.85394 3.53037 1.98599 3.54688 2.2501L4.45312 16.7499C4.46963 17.014 4.47788 17.1461 4.53456 17.2462C4.58446 17.3344 4.65998 17.4054 4.75111 17.4497C4.85463 17.5 4.98694 17.5 5.25156 17.5H18.5M7 21H7.01M16 21H16.01M7.5 21C7.5 21.2761 7.27614 21.5 7 21.5C6.72386 21.5 6.5 21.2761 6.5 21C6.5 20.7239 6.72386 20.5 7 20.5C7.27614 20.5 7.5 20.7239 7.5 21ZM16.5 21C16.5 21.2761 16.2761 21.5 16 21.5C15.7239 21.5 15.5 21.2761 15.5 21C15.5 20.7239 15.7239 20.5 16 20.5C16.2761 20.5 16.5 20.7239 16.5 21Z" stroke="white" stroke-width="2" stroke-linecap="round" stroke-linejoin="round"/>
</svg>
