<svg width="15" height="18" viewBox="0 0 15 18" fill="none" xmlns="http://www.w3.org/2000/svg">
<path d="M2.92947 9.4766C2.37719 9.4766 1.92947 9.92431 1.92947 10.4766C1.92947 11.0289 2.37719 11.4766 2.92947 11.4766V9.4766ZM12.6137 10.3274L12.1153 9.46044L12.1148 9.46072L12.6137 10.3274ZM13.1656 9.72092L14.0607 10.1667L14.0608 10.1665L13.1656 9.72092ZM13.4228 8.22854L12.4269 8.13843L12.4269 8.13846L13.4228 8.22854ZM13.799 4.07068L12.8031 3.98044L12.8031 3.98057L13.799 4.07068ZM13.8002 3.6125L12.8529 3.93275L12.853 3.93308L13.8002 3.6125ZM13.6587 3.41832L14.2199 2.59063L14.2195 2.5904L13.6587 3.41832ZM2.6079 2.36914C2.05562 2.36914 1.6079 2.81686 1.6079 3.36914C1.6079 3.92142 2.05562 4.36914 2.6079 4.36914V2.36914ZM1 0C0.447715 0 0 0.447715 0 1C0 1.55228 0.447715 2 1 2V0ZM2.12476 1.03974L2.63742 0.18115L2.63728 0.181066L2.12476 1.03974ZM2.26402 1.2004L1.35581 1.6189L1.35583 1.61896L2.26402 1.2004ZM2.3164 1.59236L1.31769 1.64316L1.31769 1.64319L2.3164 1.59236ZM2.89923 13.043L3.89794 12.9922L3.89794 12.9922L2.89923 13.043ZM2.95161 13.435L2.04344 13.8536L2.04349 13.8537L2.95161 13.435ZM3.09088 13.5957L2.57817 14.4543L2.57868 14.4546L3.09088 13.5957ZM11.9331 14.6354C12.4854 14.6354 12.9331 14.1877 12.9331 13.6354C12.9331 13.0831 12.4854 12.6354 11.9331 12.6354V14.6354ZM4.53719 15.3994C3.98491 15.3994 3.53719 15.8471 3.53719 16.3994C3.53719 16.9517 3.98491 17.3994 4.53719 17.3994V15.3994ZM4.54363 17.3994C5.09591 17.3994 5.54363 16.9517 5.54363 16.3994C5.54363 15.8471 5.09591 15.3994 4.54363 15.3994V17.3994ZM10.3253 15.3994C9.77302 15.3994 9.3253 15.8471 9.3253 16.3994C9.3253 16.9517 9.77302 17.3994 10.3253 17.3994V15.3994ZM10.3318 17.3994C10.8841 17.3994 11.3318 16.9517 11.3318 16.3994C11.3318 15.8471 10.8841 15.3994 10.3318 15.3994V17.3994ZM3.85876 16.3994C3.85876 16.2928 3.89326 16.1649 3.98915 16.0472C4.08668 15.9274 4.275 15.7943 4.53719 15.7943V17.7943C5.44926 17.7943 5.85876 16.968 5.85876 16.3994H3.85876ZM4.53719 15.7943C4.7994 15.7943 4.98772 15.9274 5.08525 16.0472C5.18113 16.165 5.21563 16.2928 5.21563 16.3994H3.21563C3.21563 16.968 3.62511 17.7943 4.53719 17.7943V15.7943ZM5.21563 16.3994C5.21563 16.506 5.18113 16.6338 5.08525 16.7516C4.98773 16.8714 4.79941 17.0045 4.53719 17.0045V15.0045C3.62511 15.0045 3.21563 15.8308 3.21563 16.3994H5.21563ZM4.53719 17.0045C4.27499 17.0045 4.08668 16.8714 3.98915 16.7516C3.89326 16.6339 3.85876 16.506 3.85876 16.3994H5.85876C5.85876 15.8308 5.44927 15.0045 4.53719 15.0045V17.0045ZM9.6469 16.3994C9.6469 16.2927 9.68143 16.1649 9.77731 16.0472C9.87483 15.9274 10.0631 15.7943 10.3253 15.7943V17.7943C11.2373 17.7943 11.6469 16.9681 11.6469 16.3994H9.6469ZM10.3253 15.7943C10.5875 15.7943 10.7759 15.9275 10.8735 16.0473C10.9694 16.1651 11.0038 16.2929 11.0038 16.3994H9.0038C9.0038 16.9677 9.41298 17.7943 10.3253 17.7943V15.7943ZM11.0038 16.3994C11.0038 16.5059 10.9694 16.6337 10.8735 16.7515C10.7759 16.8713 10.5875 17.0045 10.3253 17.0045V15.0045C9.41298 15.0045 9.0038 15.8311 9.0038 16.3994H11.0038ZM10.3253 17.0045C10.0631 17.0045 9.87483 16.8714 9.77731 16.7516C9.68143 16.6339 9.6469 16.5061 9.6469 16.3994H11.6469C11.6469 15.8307 11.2373 15.0045 10.3253 15.0045V17.0045ZM2.92947 11.4766H11.3774V9.4766H2.92947V11.4766ZM11.3774 11.4766C11.6841 11.4766 11.984 11.4777 12.2377 11.4534C12.5106 11.4274 12.8131 11.3665 13.1126 11.1941L12.1148 9.46072C12.1551 9.43753 12.1652 9.45125 12.0475 9.46248C11.9108 9.47554 11.7221 9.4766 11.3774 9.4766V11.4766ZM13.1121 11.1944C13.5316 10.9532 13.8523 10.5852 14.0607 10.1667L12.2705 9.2751C12.2157 9.38512 12.1526 9.43903 12.1153 9.46044L13.1121 11.1944ZM14.0608 10.1665C14.201 9.88494 14.2676 9.59602 14.3114 9.31366C14.3541 9.03858 14.3839 8.70336 14.4187 8.31862L12.4269 8.13846C12.3898 8.54867 12.3657 8.80965 12.335 9.00704C12.3056 9.19714 12.2795 9.25694 12.2704 9.27533L14.0608 10.1665ZM14.4187 8.31865L14.7949 4.16079L12.8031 3.98057L12.4269 8.13843L14.4187 8.31865ZM14.7949 4.16092C14.8046 4.05359 14.8171 3.92207 14.8196 3.80682C14.8221 3.68529 14.8172 3.49818 14.7474 3.29192L12.853 3.93308C12.8338 3.87631 12.8258 3.82874 12.8224 3.79803C12.8193 3.76987 12.8202 3.75555 12.82 3.76472C12.8198 3.77398 12.8189 3.79381 12.8159 3.83289C12.8129 3.87189 12.8088 3.91781 12.8031 3.98044L14.7949 4.16092ZM14.7475 3.29225C14.6594 3.03143 14.4876 2.77215 14.2199 2.59063L13.0975 4.24601C12.9572 4.15087 12.8852 4.02851 12.8529 3.93275L14.7475 3.29225ZM14.2195 2.5904C13.9927 2.43676 13.7663 2.39553 13.6245 2.38071C13.5017 2.36787 13.3659 2.36914 13.2877 2.36914V4.36914C13.3403 4.36914 13.373 4.36918 13.3994 4.36971C13.4259 4.37024 13.4275 4.37101 13.4166 4.36987C13.3924 4.36734 13.2521 4.3507 13.0979 4.24624L14.2195 2.5904ZM13.2877 2.36914H2.6079V4.36914H13.2877V2.36914ZM1 2H1.8029V0H1V2ZM1.8029 2C1.84818 2 1.87518 2.00004 1.89679 2.00044C1.91835 2.00085 1.91754 2.00141 1.90549 2.00023C1.87727 1.99748 1.75333 1.98263 1.61224 1.89841L2.63728 0.181066C2.42961 0.0571097 2.22984 0.0223932 2.09987 0.00970173C1.98921 -0.00110471 1.86844 0 1.8029 0V2ZM1.6121 1.89833C1.47655 1.81739 1.39734 1.70905 1.35581 1.6189L3.17224 0.781896C3.06652 0.55247 2.89017 0.332066 2.63742 0.18115L1.6121 1.89833ZM1.35583 1.61896C1.33317 1.56978 1.32052 1.52749 1.31364 1.49877C1.30728 1.47227 1.30592 1.45749 1.30659 1.46331C1.30686 1.4656 1.30743 1.47095 1.30821 1.48039C1.309 1.48981 1.30988 1.50187 1.31087 1.51757C1.31187 1.53326 1.31289 1.5512 1.31403 1.57244C1.31518 1.59377 1.31635 1.61678 1.31769 1.64316L3.31511 1.54156C3.31047 1.45034 3.30505 1.33418 3.29321 1.23236C3.28054 1.12338 3.25378 0.958837 3.17221 0.781837L1.35583 1.61896ZM1.31769 1.64319L1.90052 13.0938L3.89794 12.9922L3.31511 1.54153L1.31769 1.64319ZM1.90052 13.0938C1.90516 13.185 1.91058 13.3012 1.92241 13.403C1.93508 13.512 1.96184 13.6766 2.04344 13.8536L3.85978 13.0164C3.88246 13.0656 3.89511 13.1079 3.90199 13.1366C3.90835 13.1631 3.90972 13.1779 3.90904 13.1721C3.90877 13.1698 3.9082 13.1645 3.90742 13.155C3.90663 13.1456 3.90575 13.1335 3.90476 13.1178C3.90376 13.1021 3.90274 13.0842 3.9016 13.0629C3.90045 13.0416 3.89928 13.0186 3.89794 12.9922L1.90052 13.0938ZM2.04349 13.8537C2.14901 14.0826 2.32515 14.3032 2.57817 14.4543L3.60359 12.7371C3.73939 12.8182 3.81839 12.9266 3.85973 13.0163L2.04349 13.8537ZM2.57868 14.4546C2.78631 14.5784 2.986 14.613 3.11585 14.6257C3.22645 14.6365 3.34717 14.6354 3.41273 14.6354V12.6354C3.36745 12.6354 3.34044 12.6354 3.31882 12.635C3.29725 12.6346 3.29803 12.634 3.31004 12.6352C3.33816 12.6379 3.46202 12.6527 3.60308 12.7368L2.57868 14.4546ZM3.41273 14.6354H11.9331V12.6354H3.41273V14.6354ZM4.53719 17.3994H4.54363V15.3994H4.53719V17.3994ZM10.3253 17.3994H10.3318V15.3994H10.3253V17.3994Z" fill="#00B8FF"/>
</svg>
